<svg xmlns="http://www.w3.org/2000/svg" viewBox="0 0 526.07 410.02"><defs><style>.cls-1{fill:#3ea44b;}.cls-2{fill:#fff;}</style></defs><g id="Capa_2" data-name="Capa 2"><g id="Capa_1-2" data-name="Capa 1"><polygon class="cls-1" points="197.75 0.81 309.52 0 396.34 192.13 526.07 410.02 54.83 408.19 0.68 133.44 0 77.97 82.51 172.78 93.2 192.95 108.93 181.74 96.33 166.3 96.85 47.04 190.91 51.34 197.75 0.81"/><path class="cls-2" d="M75.33,222.62H138.7V239H99v12.16h36.8v15.61H99v15.08h40.82v17.34H75.33Z"/><path class="cls-2" d="M152.59,222.62h23.65V280.3h36.9v18.85H152.59Z"/><path class="cls-2" d="M70,311.71h71.88v18.9H117.77v57.63H94.12V330.61H70Z"/><path class="cls-2" d="M192.38,375.6H165.54l-3.73,12.64H137.66l28.76-76.53h25.8L221,388.24H196.21Zm-4.9-16.54L179,331.55l-8.36,27.51Z"/><path class="cls-2" d="M228.49,311.71h23.65v57.68h36.91v18.85H228.49Z"/><path class="cls-2" d="M346.85,375.6H320l-3.73,12.64H292.13l28.76-76.53h25.79l28.76,76.53H350.68Zm-4.91-16.54-8.44-27.51-8.36,27.51Z"/><path class="cls-2" d="M383.27,388.24V311.71h39.41q11,0,16.76,1.88a17.83,17.83,0,0,1,9.35,7,21.6,21.6,0,0,1-6.64,30.87,28.55,28.55,0,0,1-8.31,3,16,16,0,0,1,9.94,6.85,29.67,29.67,0,0,1,3.31,4.75l11.46,22.18H431.83l-12.64-23.39c-1.6-3-3-5-4.28-5.9a10,10,0,0,0-5.8-1.77H407v31.06ZM407,342.72h10a35.5,35.5,0,0,0,6.27-1.05,6.27,6.27,0,0,0,3.84-2.4,7.77,7.77,0,0,0-.87-10.13q-2.34-2-8.82-2H407Z"/></g></g></svg>